<svg width="32" height="32" viewBox="0 0 32 32" fill="none" xmlns="http://www.w3.org/2000/svg">
<rect width="32" height="32" fill="#1E1E1E"/>
<g id="Web Page">
<rect width="1440" height="3239" transform="translate(-160 -769)" fill="white"/>
<g id="Empower Role Tabs V2 Employee Web">
<rect width="1440" height="929" transform="translate(-160 -630)" fill="white"/>
<g id="Content + Tabs">
<g id="Content">
<g id="Benefits">
<g id="Frame 2506">
<g id="vuesax/linear/edit-2">
<g id="vuesax/linear/edit-2_2">
<g id="edit-2">
<path id="Vector" d="M17.6796 4.79964L6.73297 16.3863C6.31964 16.8263 5.91964 17.693 5.83964 18.293L5.34631 22.613C5.17297 24.173 6.29297 25.2396 7.83964 24.973L12.133 24.2396C12.733 24.133 13.573 23.693 13.9863 23.2396L24.933 11.653C26.8263 9.65297 27.6796 7.37297 24.733 4.5863C21.7996 1.8263 19.573 2.79964 17.6796 4.79964Z" fill="#C8DDFF" fill-opacity="0.55" stroke="#3A86FF" stroke-width="1.6" stroke-miterlimit="10" stroke-linecap="round" stroke-linejoin="round"/>
<path id="Vector_2" d="M15.8535 6.73242C16.4268 10.4124 19.4135 13.2258 23.1202 13.5991" stroke="#3A86FF" stroke-width="1.6" stroke-miterlimit="10" stroke-linecap="round" stroke-linejoin="round"/>
<path id="Vector_3" d="M4 29.334H28" stroke="#3A86FF" stroke-width="1.6" stroke-miterlimit="10" stroke-linecap="round" stroke-linejoin="round"/>
</g>
</g>
</g>
</g>
</g>
</g>
</g>
</g>
</g>
</svg>
