<svg width="32" height="32" viewBox="0 0 32 32" fill="none" xmlns="http://www.w3.org/2000/svg">
<rect width="32" height="32" fill="#1E1E1E"/>
<g id="Web Page">
<rect width="1440" height="3239" transform="translate(-160 -545)" fill="white"/>
<g id="Empower Role Tabs V2 Employee Web">
<rect width="1440" height="929" transform="translate(-160 -406)" fill="white"/>
<g id="Content + Tabs">
<g id="Content">
<g id="Benefits">
<g id="Frame 2503">
<g id="messages">
<g id="Group">
<path id="Vector" d="M23.9734 14.3867V19.72C23.9734 20.0667 23.9601 20.4 23.9201 20.72C23.6134 24.32 21.4934 26.1066 17.5868 26.1066H17.0534C16.7201 26.1066 16.4001 26.2667 16.2001 26.5333L14.6001 28.6667C13.8934 29.6133 12.7467 29.6133 12.0401 28.6667L10.4401 26.5333C10.2667 26.3067 9.88008 26.1066 9.58675 26.1066H9.05343C4.80009 26.1066 2.66675 25.0533 2.66675 19.72V14.3867C2.66675 10.48 4.46676 8.36001 8.05343 8.05334C8.37343 8.01334 8.70676 8 9.05343 8H17.5868C21.8401 8 23.9734 10.1333 23.9734 14.3867Z" fill="#C8DDFF" fill-opacity="0.55" stroke="#3A86FF" stroke-width="1.6" stroke-miterlimit="10" stroke-linecap="round" stroke-linejoin="round"/>
</g>
<path id="Vector_2" d="M29.3066 9.05269V14.386C29.3066 18.306 27.5065 20.4127 23.9199 20.7194C23.9599 20.3994 23.9732 20.066 23.9732 19.7194V14.386C23.9732 10.1327 21.8399 7.99935 17.5865 7.99935H9.05322C8.70656 7.99935 8.37322 8.01269 8.05322 8.05269C8.35989 4.46603 10.4799 2.66602 14.3866 2.66602H22.9199C27.1732 2.66602 29.3066 4.79936 29.3066 9.05269Z" stroke="#3A86FF" stroke-width="1.6" stroke-miterlimit="10" stroke-linecap="round" stroke-linejoin="round"/>
<path id="Vector_3" d="M17.9942 17.6667H18.0062" stroke="#3A86FF" stroke-width="1.6" stroke-linecap="round" stroke-linejoin="round"/>
<path id="Vector_4" d="M13.3272 17.6667H13.3392" stroke="#3A86FF" stroke-width="1.6" stroke-linecap="round" stroke-linejoin="round"/>
<path id="Vector_5" d="M8.66067 17.6667H8.67267" stroke="#3A86FF" stroke-width="1.6" stroke-linecap="round" stroke-linejoin="round"/>
</g>
</g>
</g>
</g>
</g>
</g>
</g>
</svg>
