<svg width="32" height="32" viewBox="0 0 32 32" fill="none" xmlns="http://www.w3.org/2000/svg">
<rect width="32" height="32" fill="#1E1E1E"/>
<g id="Web Page">
<rect width="1440" height="3239" transform="translate(-160 -657)" fill="white"/>
<g id="Empower Role Tabs V2 Employee Web">
<rect width="1440" height="929" transform="translate(-160 -518)" fill="white"/>
<g id="Content + Tabs">
<g id="Content">
<g id="Benefits">
<g id="Frame 2504">
<mask id="path-1-inside-1_0_1" fill="white">
<path d="M0 -32H247V80H0V-32Z"/>
</mask>
<path d="M0 -31H247V-33H0V-31ZM247 79H0V81H247V79Z" fill="#A4C7FF" mask="url(#path-1-inside-1_0_1)"/>
<g id="Frame 2505">
<g id="programming-arrows">
<path id="Vector" d="M25.3335 21.3333V8.66667C25.3335 7.2 24.1335 6 22.6668 6H15.3335" stroke="#3A86FF" stroke-width="1.6" stroke-linecap="round" stroke-linejoin="round"/>
<path id="Vector_2" d="M18.6665 2.66699L14.6665 6.00033L18.6665 9.33366" stroke="#3A86FF" stroke-width="1.6" stroke-linecap="round" stroke-linejoin="round"/>
<path id="Vector_3" d="M25.3335 29.333C27.5426 29.333 29.3335 27.5421 29.3335 25.333C29.3335 23.1239 27.5426 21.333 25.3335 21.333C23.1244 21.333 21.3335 23.1239 21.3335 25.333C21.3335 27.5421 23.1244 29.333 25.3335 29.333Z" fill="#C8DDFF" fill-opacity="0.55" stroke="#3A86FF" stroke-width="1.6" stroke-linecap="round" stroke-linejoin="round"/>
<path id="Vector_4" d="M6.6665 10.667V23.3337C6.6665 24.8003 7.8665 26.0003 9.33317 26.0003H16.6665" stroke="#3A86FF" stroke-width="1.6" stroke-linecap="round" stroke-linejoin="round"/>
<path id="Vector_5" d="M13.3335 29.3337L17.3335 26.0003L13.3335 22.667" stroke="#3A86FF" stroke-width="1.6" stroke-linecap="round" stroke-linejoin="round"/>
<path id="Vector_6" d="M6.6665 10.667C8.87564 10.667 10.6665 8.87613 10.6665 6.66699C10.6665 4.45785 8.87564 2.66699 6.6665 2.66699C4.45736 2.66699 2.6665 4.45785 2.6665 6.66699C2.6665 8.87613 4.45736 10.667 6.6665 10.667Z" fill="#C8DDFF" fill-opacity="0.55" stroke="#3A86FF" stroke-width="1.6" stroke-linecap="round" stroke-linejoin="round"/>
</g>
</g>
</g>
</g>
</g>
</g>
</g>
</g>
</svg>
